# xmcd
#
# Track frame offsets:
#	150
#	15921
#	30691
#	48607
#	64685
#	81145
#	109910
#	127255
#	142201
#	158833
#	172457
#	194513
#	220354
#	236321
#	250892
#	265902
#	280057
#	295662
#	309020
#
# Disc length: 4331
#
# Revision: 2
# Processed by: cddbd v1.5.1PL0 Copyright (c) Steve Scherf et al.
# Submitted via: audiograbber 1.81.02
# Normalized: r1:DSETVAR1,TDELIM( - )
#
DISCID=1c10e913
DTITLE=Various Artist - Ballermann Champions Hits 2001 CD 1
DYEAR=1900
DGENRE=
TTITLE0=Millane Fernandez - Boom Boom
TTITLE1=Raid Said Fred - You´re my Mate
TTITLE2=Gig D´Agostino and Albertino - Super
TTITLE3=ATC - Why oh Why
TTITLE4=Christian - Permant geil
TTITLE5=Olaf Henning - Mallorca
TTITLE6=Britney Spears - Dont´ let me the last to know
TTITLE7=DJ Bobo and Irene Cara - What a feeling
TTITLE8=Brooklyn Bounce - Born to Bounce
TTITLE9=Zlatko - Einer für alle
TTITLE10=Peter Schilling - Die Wüste lebt
TTITLE11=IBO - Bungalow-Mix
TTITLE12=Harry - Mir kann keiner was
TTITLE13=A*TEENS - Upside Down
TTITLE14=Shakatak vs. Wackside - Down on the Street 2001
TTITLE15=Mabel - Don´t let me down
TTITLE16=Michelle - Dornröschen ist aufgewacht
TTITLE17=Münchener Zwietracht - Teilt Freud und Leid
TTITLE18=Michael Morgan and Rosana Rocci - Felicita
EXTD=
EXTT0=
EXTT1=
EXTT2=
EXTT3=
EXTT4=
EXTT5=
EXTT6=
EXTT7=
EXTT8=
EXTT9=
EXTT10=
EXTT11=
EXTT12=
EXTT13=
EXTT14=
EXTT15=
EXTT16=
EXTT17=
EXTT18=
PLAYORDER=
